<svg width="250" height="250" viewBox="0 0 250 250" fill="none" xmlns="http://www.w3.org/2000/svg">
<g filter="url(#filter0_i_7_743)">
<path fill-rule="evenodd" clip-rule="evenodd" d="M169.038 7.97826C155.342 2.82125 140.5 0 125 0C55.9644 0 0 55.9644 0 125C0 150.182 7.4461 173.624 20.2566 193.245L30.3847 181.649C20.6301 165.068 15.0273 145.696 15.0273 125C15.0273 63.7432 64.1109 14.0847 124.659 14.0847C136.612 14.0847 148.119 16.0203 158.89 19.5985L169.038 7.97826ZM151.197 28.4068C142.872 25.9585 134.084 24.6481 125 24.6481C72.1859 24.6481 29.3716 68.9466 29.3716 123.592C29.3716 140.373 33.4096 156.179 40.5351 170.026L49.3495 159.933C44.4187 149.098 41.6669 137.024 41.6669 124.296C41.6669 77.4298 78.9764 39.4371 125 39.4371C130.232 39.4371 135.351 39.928 140.315 40.8671L151.197 28.4068ZM201.573 90.7601L210.906 80.0732C217.133 93.2064 220.629 107.977 220.629 123.592C220.629 178.237 177.814 222.535 125 222.535C117.078 222.535 109.381 221.538 102.019 219.66L112.079 208.141C116.29 208.809 120.605 209.155 125 209.155C171.024 209.155 208.333 171.163 208.333 124.296C208.333 112.385 205.923 101.047 201.573 90.7601ZM219.813 69.8751L230.393 57.7602C242.805 77.175 250 100.247 250 125C250 194.036 194.036 250 125 250C109.934 250 95.4908 247.335 82.1158 242.45L92.1516 230.959C102.423 234.18 113.34 235.916 124.659 235.916C185.206 235.916 234.29 186.257 234.29 125C234.29 104.935 229.023 86.1139 219.813 69.8751Z" fill="url(#paint0_linear_7_743)"/>
<rect x="178.962" y="11.9719" width="62.1584" height="12.6761" rx="6" fill="url(#paint1_linear_7_743)"/>
<rect x="156.421" y="35.9155" width="67.623" height="12.6761" rx="6" fill="url(#paint2_linear_7_743)"/>
<rect x="134.563" y="59.8591" width="71.7213" height="12.6761" rx="6" fill="url(#paint3_linear_7_743)"/>
<rect x="115.436" y="83.803" width="71.7213" height="12.6761" rx="6" fill="url(#paint4_linear_7_743)"/>
<rect x="96.9952" y="107.747" width="73.7705" height="12.6761" rx="6" fill="url(#paint5_linear_7_743)"/>
<rect x="78.5518" y="131.69" width="73.7705" height="12.6761" rx="6" fill="url(#paint6_linear_7_743)"/>
<rect x="60.1089" y="155.634" width="73.7705" height="12.6761" rx="6" fill="url(#paint7_linear_7_743)"/>
<rect x="41.6669" y="179.578" width="73.7705" height="12.6761" rx="6" fill="url(#paint8_linear_7_743)"/>
<rect x="28.0051" y="203.521" width="57.377" height="12.6761" rx="6" fill="url(#paint9_linear_7_743)"/>
</g>
<defs>
<filter id="filter0_i_7_743" x="0" y="0" width="250" height="254" filterUnits="userSpaceOnUse" color-interpolation-filters="sRGB">
<feFlood flood-opacity="0" result="BackgroundImageFix"/>
<feBlend mode="normal" in="SourceGraphic" in2="BackgroundImageFix" result="shape"/>
<feColorMatrix in="SourceAlpha" type="matrix" values="0 0 0 0 0 0 0 0 0 0 0 0 0 0 0 0 0 0 127 0" result="hardAlpha"/>
<feOffset dy="4"/>
<feGaussianBlur stdDeviation="2"/>
<feComposite in2="hardAlpha" operator="arithmetic" k2="-1" k3="1"/>
<feColorMatrix type="matrix" values="0 0 0 0 0 0 0 0 0 0 0 0 0 0 0 0 0 0 0.25 0"/>
<feBlend mode="normal" in2="shape" result="effect1_innerShadow_7_743"/>
</filter>
<linearGradient id="paint0_linear_7_743" x1="125" y1="0" x2="125" y2="250" gradientUnits="userSpaceOnUse">
<stop stop-color="#52BF90"/>
<stop offset="0.5" stop-color="#3C8C6A"/>
<stop offset="0.75" stop-color="#317356"/>
<stop offset="0.875" stop-color="#2C664D"/>
<stop offset="1" stop-color="#265943"/>
</linearGradient>
<linearGradient id="paint1_linear_7_743" x1="210.041" y1="11.9719" x2="210.041" y2="24.648" gradientUnits="userSpaceOnUse">
<stop stop-color="#52BF90"/>
<stop offset="0.5" stop-color="#3C8C6A"/>
<stop offset="0.75" stop-color="#317356"/>
<stop offset="0.875" stop-color="#2C664D"/>
<stop offset="1" stop-color="#265943"/>
</linearGradient>
<linearGradient id="paint2_linear_7_743" x1="190.232" y1="35.9155" x2="190.232" y2="48.5916" gradientUnits="userSpaceOnUse">
<stop stop-color="#52BF90"/>
<stop offset="0.5" stop-color="#3C8C6A"/>
<stop offset="0.75" stop-color="#317356"/>
<stop offset="0.875" stop-color="#2C664D"/>
<stop offset="1" stop-color="#265943"/>
</linearGradient>
<linearGradient id="paint3_linear_7_743" x1="170.424" y1="59.8591" x2="170.424" y2="72.5352" gradientUnits="userSpaceOnUse">
<stop stop-color="#52BF90"/>
<stop offset="0.5" stop-color="#3C8C6A"/>
<stop offset="0.75" stop-color="#317356"/>
<stop offset="0.875" stop-color="#2C664D"/>
<stop offset="1" stop-color="#265943"/>
</linearGradient>
<linearGradient id="paint4_linear_7_743" x1="151.297" y1="83.803" x2="151.297" y2="96.479" gradientUnits="userSpaceOnUse">
<stop stop-color="#52BF90"/>
<stop offset="0.5" stop-color="#3C8C6A"/>
<stop offset="0.75" stop-color="#317356"/>
<stop offset="0.875" stop-color="#2C664D"/>
<stop offset="1" stop-color="#265943"/>
</linearGradient>
<linearGradient id="paint5_linear_7_743" x1="133.88" y1="107.747" x2="133.88" y2="120.423" gradientUnits="userSpaceOnUse">
<stop stop-color="#52BF90"/>
<stop offset="0.5" stop-color="#3C8C6A"/>
<stop offset="0.75" stop-color="#317356"/>
<stop offset="0.875" stop-color="#2C664D"/>
<stop offset="1" stop-color="#265943"/>
</linearGradient>
<linearGradient id="paint6_linear_7_743" x1="115.437" y1="131.69" x2="115.437" y2="144.366" gradientUnits="userSpaceOnUse">
<stop stop-color="#52BF90"/>
<stop offset="0.5" stop-color="#3C8C6A"/>
<stop offset="0.75" stop-color="#317356"/>
<stop offset="0.875" stop-color="#2C664D"/>
<stop offset="1" stop-color="#265943"/>
</linearGradient>
<linearGradient id="paint7_linear_7_743" x1="96.9942" y1="155.634" x2="96.9942" y2="168.31" gradientUnits="userSpaceOnUse">
<stop stop-color="#52BF90"/>
<stop offset="0.5" stop-color="#3C8C6A"/>
<stop offset="0.75" stop-color="#317356"/>
<stop offset="0.875" stop-color="#2C664D"/>
<stop offset="1" stop-color="#265943"/>
</linearGradient>
<linearGradient id="paint8_linear_7_743" x1="78.5521" y1="179.578" x2="78.5521" y2="192.254" gradientUnits="userSpaceOnUse">
<stop stop-color="#52BF90"/>
<stop offset="0.5" stop-color="#3C8C6A"/>
<stop offset="0.75" stop-color="#317356"/>
<stop offset="0.875" stop-color="#2C664D"/>
<stop offset="1" stop-color="#265943"/>
</linearGradient>
<linearGradient id="paint9_linear_7_743" x1="56.6936" y1="203.521" x2="56.6936" y2="216.197" gradientUnits="userSpaceOnUse">
<stop stop-color="#52BF90"/>
<stop offset="0.5" stop-color="#3C8C6A"/>
<stop offset="0.75" stop-color="#317356"/>
<stop offset="0.875" stop-color="#2C664D"/>
<stop offset="1" stop-color="#265943"/>
</linearGradient>
</defs>
</svg>
