<svg width="75" height="75" viewBox="0 0 75 75" fill="none" xmlns="http://www.w3.org/2000/svg">
<g filter="url(#filter0_i_960_183)">
<path fill-rule="evenodd" clip-rule="evenodd" d="M50.7118 2.39358C46.6026 0.846411 42.1502 0 37.5 0C16.7893 0 0 16.7893 0 37.5C0 45.0542 2.23366 52.0866 6.07655 57.973L9.11447 54.4945C6.18837 49.5205 4.50773 43.7092 4.50773 37.5007C4.50773 19.1236 19.2328 4.22602 37.3971 4.22602C40.9833 4.22602 44.4355 4.80673 47.6667 5.88026L50.7118 2.39358ZM45.3592 8.52243C42.8614 7.78783 40.2248 7.39462 37.4994 7.39462C21.6551 7.39462 8.81084 20.6842 8.81084 37.0777C8.81084 42.1124 10.0223 46.8543 12.1601 51.0084L14.8048 47.9801C13.3255 44.7292 12.4998 41.107 12.4998 37.2884C12.4998 23.2285 23.6927 11.8307 37.4998 11.8307C39.0696 11.8307 40.6056 11.978 42.0952 12.2598L45.3592 8.52243ZM60.472 27.2283L63.2715 24.0228C65.1392 27.9626 66.1879 32.3935 66.1879 37.0777C66.1879 53.4712 53.3436 66.7608 37.4994 66.7608C35.1229 66.7608 32.8139 66.4618 30.6056 65.8983L33.624 62.4421C34.8871 62.6423 36.1816 62.7462 37.4998 62.7462C51.307 62.7462 62.4998 51.3484 62.4998 37.2884C62.4998 33.7153 61.777 30.3142 60.472 27.2283ZM65.9434 20.9634L69.1181 17.3283C72.8417 23.1527 75 30.0743 75 37.5C75 58.2107 58.2107 75 37.5 75C32.98 75 28.6467 74.2003 24.634 72.7346L27.6441 69.288C30.7257 70.2547 34.0013 70.7754 37.3971 70.7754C55.5613 70.7754 70.2864 55.8778 70.2864 37.5007C70.2864 31.4812 68.7065 25.835 65.9434 20.9634Z" fill="#52A1F0"/>
<path d="M53.688 5.49272C53.688 4.4426 54.5393 3.59131 55.5894 3.59131H70.4341C71.4842 3.59131 72.3355 4.4426 72.3355 5.49272V5.49272C72.3355 6.54284 71.4842 7.39413 70.4341 7.39413H55.5894C54.5393 7.39413 53.688 6.54284 53.688 5.49272V5.49272Z" fill="#52A1F0"/>
<path d="M46.9268 12.6764C46.9268 11.6263 47.778 10.775 48.8282 10.775H65.3122C66.3624 10.775 67.2136 11.6263 67.2136 12.6764V12.6764C67.2136 13.7266 66.3624 14.5778 65.3122 14.5778H48.8282C47.778 14.5778 46.9268 13.7266 46.9268 12.6764V12.6764Z" fill="#52A1F0"/>
<path d="M40.3687 19.8584C40.3687 18.8083 41.2199 17.957 42.2701 17.957H59.9836C61.0337 17.957 61.885 18.8083 61.885 19.8584V19.8584C61.885 20.9086 61.0337 21.7598 59.9836 21.7598H42.2701C41.2199 21.7598 40.3687 20.9086 40.3687 19.8584V19.8584Z" fill="#52A1F0"/>
<path d="M34.6313 27.0422C34.6313 25.992 35.4826 25.1407 36.5328 25.1407H54.2463C55.2964 25.1407 56.1477 25.992 56.1477 27.0422V27.0422C56.1477 28.0923 55.2964 28.9436 54.2463 28.9436H36.5328C35.4826 28.9436 34.6313 28.0923 34.6313 27.0422V27.0422Z" fill="#52A1F0"/>
<path d="M29.0981 34.2257C29.0981 33.1756 29.9494 32.3243 30.9996 32.3243H49.3279C50.378 32.3243 51.2293 33.1756 51.2293 34.2257V34.2257C51.2293 35.2759 50.378 36.1272 49.3279 36.1272H30.9996C29.9494 36.1272 29.0981 35.2759 29.0981 34.2257V34.2257Z" fill="#52A1F0"/>
<path d="M23.5654 41.4079C23.5654 40.3578 24.4167 39.5065 25.4668 39.5065H43.7952C44.8453 39.5065 45.6966 40.3578 45.6966 41.4079V41.4079C45.6966 42.458 44.8453 43.3093 43.7952 43.3093H25.4668C24.4167 43.3093 23.5654 42.458 23.5654 41.4079V41.4079Z" fill="#52A1F0"/>
<path d="M18.033 48.592C18.033 47.5418 18.8842 46.6906 19.9344 46.6906H38.2627C39.3128 46.6906 40.1641 47.5418 40.1641 48.592V48.592C40.1641 49.6421 39.3128 50.4934 38.2627 50.4934H19.9344C18.8842 50.4934 18.033 49.6421 18.033 48.592V48.592Z" fill="#52A1F0"/>
<path d="M12.4998 55.7742C12.4998 54.7241 13.351 53.8728 14.4012 53.8728H32.7295C33.7796 53.8728 34.6309 54.7241 34.6309 55.7742V55.7742C34.6309 56.8243 33.7796 57.6756 32.7295 57.6756H14.4012C13.351 57.6756 12.4998 56.8243 12.4998 55.7742V55.7742Z" fill="#52A1F0"/>
<path d="M8.40186 62.9578C8.40186 61.9077 9.25315 61.0564 10.3033 61.0564H23.7136C24.7637 61.0564 25.615 61.9077 25.615 62.9578V62.9578C25.615 64.0079 24.7637 64.8592 23.7136 64.8592H10.3033C9.25314 64.8592 8.40186 64.0079 8.40186 62.9578V62.9578Z" fill="#52A1F0"/>
</g>
<defs>
<filter id="filter0_i_960_183" x="0" y="0" width="75" height="79" filterUnits="userSpaceOnUse" color-interpolation-filters="sRGB">
<feFlood flood-opacity="0" result="BackgroundImageFix"/>
<feBlend mode="normal" in="SourceGraphic" in2="BackgroundImageFix" result="shape"/>
<feColorMatrix in="SourceAlpha" type="matrix" values="0 0 0 0 0 0 0 0 0 0 0 0 0 0 0 0 0 0 127 0" result="hardAlpha"/>
<feOffset dy="4"/>
<feGaussianBlur stdDeviation="2"/>
<feComposite in2="hardAlpha" operator="arithmetic" k2="-1" k3="1"/>
<feColorMatrix type="matrix" values="0 0 0 0 0 0 0 0 0 0 0 0 0 0 0 0 0 0 0.25 0"/>
<feBlend mode="normal" in2="shape" result="effect1_innerShadow_960_183"/>
</filter>
</defs>
</svg>
